<?xml version="1.0" encoding="utf-8"?>
<!-- Generator: Adobe Illustrator 27.0.0, SVG Export Plug-In . SVG Version: 6.00 Build 0)  -->
<svg version="1.1" xmlns="http://www.w3.org/2000/svg" xmlns:xlink="http://www.w3.org/1999/xlink" x="0px" y="0px"
	 viewBox="0 0 496 512" style="enable-background:new 0 0 496 512;" xml:space="preserve">
<g id="Layer_1">
	<path d="M252.8,34.9c4.2-0.4,17.1,1.5,17.1,17.1l9.8,159.6l7.3-88.3c0-8.9,7-15.8,15.8-15.8s15.8,7,15.8,15.8
		c0,3.7-0.7-8.5,8.5,121.3l8.6-95.6c0.4-4.3,4.3-13.8,15.2-13.8c5.7,0,14.7,3.4,15.8,13.3l17.1,143.7l7.9-19.1
		c2.7-6.6,7.7-9.8,15.2-9.8h86.4V295h-75.8l-27.1,66c-5.8,14.7-29,13.5-31-4.6l-6-47.5l-11.2,137.9c-0.4,4.5-4.5,13.8-15.2,13.8
		c-4.5,0-14.6-3.1-15.8-13.8c0-2.8,0.9,8.6-9.2-116l-7.9,107.5c-1.6,7.1-7.1,13.8-15.8,13.8c-4.3,0-14.6-3-15.8-13.8
		c0-2.8,0.7,10-8.6-130.6l-8.6,141.1c0,9.4-5.4,18.5-15.8,18.5c-7.7,0-15.8-6.1-15.8-17.9l-8.6-130.6
		c-8.6,137.7-7.9,125.1-7.9,127.9c-1.6,7.1-7.1,13.8-15.8,13.8c-4.5,0-14.6-3.1-15.8-13.8c0-1-0.6-1.6-0.6-3.9L155.9,311l-7.3,84.4
		c-1,9.7-10,13.8-15.8,13.8c-8.6,0-14.3-6.1-15.8-13.3l-16.5-113.7c-3,6-5.2,12.5-16.5,12.5H7.4V263h66.7l20.4-41.5
		c6.6-14.7,27.1-10.7,29.6,4l4.6,30.4l12.5-145.8c0-8.9,7.1-15.8,15.8-15.8c0.7,0,15.8-0.3,15.8,18.5l7.3,102.9L190,77.8
		c0-15,14.1-15.8,15.2-15.8c0.9,0,15.8,1,15.8,15.8l7.9,120l9.2-145.8C238.2,50.4,237.2,36.7,252.8,34.9L252.8,34.9z"/>
</g>
<g id="Layer_2">
</g>
</svg>
